<?xml version="1.0" encoding="UTF-8"?>
<svg id="_Слой_2" data-name="Слой 2" xmlns="http://www.w3.org/2000/svg" viewBox="0 0 835.43 159.08">
  <defs>
    <style>
      .cls-1 {
        fill: #e63340;
        stroke-width: 0px;
      }
    </style>
  </defs>
  <g id="P">
    <g>
      <g>
        <path class="cls-1" d="m121.93,117.08l-36.13,42L8.88,67.83C3.31,60.71,0,51.75,0,42,0,19.22,18.15.68,40.78.02c.41-.01.82-.01,1.23-.01C54.16,0,65.12,5.17,72.79,13.43l6.82,8.07c-1.21,3.07-2.18,6.29-2.84,9.62-.72,3.53-1.08,7.2-1.08,10.87,0,12.55,4.1,24.4,11.82,34.24l34.43,40.84Z"/>
        <path class="cls-1" d="m131.12,0c-20.38,0-37.37,14.5-41.2,33.74-.54,2.66-.82,5.43-.82,8.25,0,9.8,3.35,18.81,8.95,25.95l.03.03,32.71,38.79,33.15-38.53c5.75-7.21,9.18-16.32,9.18-26.25,0-23.19-18.81-42-42.01-42Zm-.07,56.76c-8.12,0-14.69-6.58-14.69-14.69s6.58-14.69,14.69-14.69,14.69,6.58,14.69,14.69-6.58,14.69-14.69,14.69Z"/>
      </g>
      <g>
        <path class="cls-1" d="m303.62,81.73c0,26.02-17.48,42.63-40.34,42.63-11.07,0-19.62-3.95-25.86-10.05v37.49h-21.2V41.39h20.8v7.91c6.88-6.64,16.14-10.36,26.73-10.36,22.07,0,39.86,16.37,39.86,42.79Zm-20.88-.08c0-15.66-10.12-24.12-22.31-24.12s-22.23,8.31-22.23,24.12,10.12,24.12,22.15,24.12,22.38-8.38,22.38-24.12Z"/>
        <path class="cls-1" d="m316.84,14.02c0-7.28,5.93-13.13,13.13-13.13s13.05,5.85,13.05,13.05-5.93,13.21-13.05,13.21-13.13-5.85-13.13-13.13Zm2.21,27.37h21.75v81h-21.75V41.39Z"/>
        <path class="cls-1" d="m361.45,8.96h21.75v113.43h-21.75V8.96Z"/>
        <path class="cls-1" d="m483.74,41.39v73.96c0,25.39-14.95,40.02-43.98,40.02-12.89,0-23.89-2.85-29.98-4.75v-19.46c6.49,2.21,14.95,5.69,27.68,5.69,17.64,0,25.23-6.64,25.23-21.36v-6.17c-6.01,6.01-14.32,9.97-25.15,9.97-21.44,0-38.84-15.11-38.84-39.71s17.48-39.71,38.28-39.71c10.28,0,19.22,3.72,25.79,10.05v-8.54h20.96Zm-22.94,38.12c0-14.63-8.94-22.31-20.25-22.31s-20.25,7.59-20.25,22.31,8.94,22.54,20.25,22.54,20.25-7.75,20.25-22.54Z"/>
        <path class="cls-1" d="m553.67,39.49v23.57c-3.88-.87-7.43-1.34-10.99-1.34-12.1,0-18.35,7.59-18.43,22.07v38.52h-21.51l-.08-80.92h21.59v9.65c5.3-6.8,13.76-11.15,25.39-11.71,1.66,0,3.16.08,4.03.16Z"/>
        <path class="cls-1" d="m565.3,14.02c0-7.28,5.93-13.13,13.13-13.13s13.05,5.85,13.05,13.05-5.93,13.21-13.05,13.21-13.13-5.85-13.13-13.13Zm2.21,27.37h21.75v81h-21.75V41.39Z"/>
        <path class="cls-1" d="m747.39,76.2v46.19h-21.83v-44.37c0-11.86-5.93-18.98-16.93-18.98s-18.9,6.88-19.06,22.62v40.74h-21.83v-44.37c0-11.86-5.93-18.98-16.93-18.98s-19.06,7.59-19.14,23.1v40.26h-21.75V41.39h21.75v8.54c6.33-6.72,14.95-10.92,25.71-10.92,12.18,0,22.07,5.3,27.6,15.74,6.56-9.41,16.69-15.74,30.14-15.74,19.06,0,32.27,12.58,32.27,37.18Z"/>
        <path class="cls-1" d="m835.43,103.33v19.06h-72.53v-14.24l43.42-47.7h-42v-19.06h70.87v15.42l-42.95,46.51h43.19Z"/>
      </g>
    </g>
  </g>
</svg>